#!OML:ASF E:\acrobat2\Project_11_07_03\Capture day 1\Session 1\Acrobat.ASF
:FULLY-SPECIFIED
:DEGREES
501
root 10.0085 18.2351 -18.8031 3.20978 -0.821556 2.38777
lowerback -8.61728 0.72623 -1.27
upperback -0.222844 1.14068 -1.01603
thorax 4.59916 0.547232 -0.198966
lowerneck 9.58984 -1.83853 -2.90929
upperneck -4.50891 -2.62138 2.89968
head -3.07178 -1.36347 1.61161
rclavicle 8.34041e-015 1.20265e-014
rhumerus -40.6294 11.928 -93.2988
rradius 26.9983
rwrist -0.302084
rhand -4.24613 -30.6755
rfingers 7.12502
rthumb 21.5176 -59.5003
lclavicle 8.34041e-015 1.20265e-014
lhumerus -34.6534 -16.4665 94.2379
lradius 19.8119
lwrist 10.4894
lhand 3.82219 -11.0147
lfingers 7.12502
lthumb 29.2459 16.7065
rfemur 4.07291 6.66019 17.8017
rtibia 1.08571
rfoot -17.2969 -18.482
rtoes 3.16164
lfemur -0.31899 1.28509 -21.3573
ltibia 5.75567
lfoot -5.86011 -6.5127
ltoes 26.4551
502
root 10.0063 18.2351 -18.8004 3.24514 -0.647813 2.3684
lowerback -8.6613 0.734137 -1.20064
upperback -0.260227 1.14531 -1.03112
thorax 4.58653 0.551338 -0.252678
lowerneck 9.58896 -1.94872 -2.81221
upperneck -4.57297 -2.76016 2.83111
head -3.09042 -1.43122 1.58002
rclavicle 2.13942e-014 -1.56543e-014
rhumerus -40.7144 11.5835 -93.236
rradius 26.8473
rwrist -0.361864
rhand -4.26088 -30.623
rfingers 7.12502
rthumb 21.5034 -59.4494
lclavicle 2.13942e-014 -1.56543e-014
lhumerus -34.636 -16.6214 94.2693
lradius 19.8436
lwrist 10.4832
lhand 3.50963 -11.1427
lfingers 7.12502
lthumb 28.9474 16.6301
rfemur 4.11941 6.65761 17.8549
rtibia 0.998044
rfoot -17.3148 -18.6639
rtoes 2.98437
lfemur -0.345628 1.24329 -21.3286
ltibia 5.73354
lfoot -5.75495 -6.55581
ltoes 26.3648
503
root 10.0039 18.2351 -18.7974 3.29047 -0.492748 2.36277
lowerback -8.71288 0.743851 -1.16253
upperback -0.314164 1.15526 -1.04598
thorax 4.56028 0.557459 -0.287928
lowerneck 9.63844 -2.1071 -2.66218
upperneck -4.72732 -2.96219 2.68408
head -3.14949 -1.5281 1.51936
rclavicle 1.15303e-014 -1.2424e-015
rhumerus -40.8064 11.2499 -93.1717
rradius 26.6485
rwrist -0.428252
rhand -4.29696 -30.5227
rfingers 7.12502
rthumb 21.4688 -59.3531
lclavicle 1.15303e-014 -1.2424e-015
lhumerus -34.6414 -16.7447 94.2958
lradius 19.8779
lwrist 10.4584
lhand 3.22007 -11.2962
lfingers 7.12502
lthumb 28.6708 16.5237
rfemur 4.1462 6.65233 17.8931
rtibia 0.924591
rfoot -17.3371 -18.8414
rtoes 2.75438
lfemur -0.378237 1.20677 -21.3193
ltibia 5.70494
lfoot -5.66274 -6.58574
ltoes 26.216
504
root 10.0008 18.2351 -18.7944 3.34096 -0.359189 2.37505
lowerback -8.76657 0.758579 -1.1572
upperback -0.369742 1.17547 -1.06792
thorax 4.53299 0.568015 -0.310812
lowerneck 9.62839 -2.26244 -2.52082
upperneck -4.82694 -3.15987 2.54999
head -3.17896 -1.62306 1.46209
rclavicle -4.22961e-015 -7.25564e-015
rhumerus -40.8839 10.9193 -93.1099
rradius 26.413
rwrist -0.491605
rhand -4.38148 -30.3797
rfingers 7.12502
rthumb 21.3876 -59.2192
lclavicle -4.22961e-015 -7.25564e-015
lhumerus -34.6356 -16.85 94.2988
lradius 19.9134
lwrist 10.3852
lhand 2.92345 -11.4179
lfingers 7.12502
lthumb 28.3874 16.4495
rfemur 4.15251 6.65105 17.9109
rtibia 0.870496
rfoot -17.3638 -19.0094
rtoes 2.5166
lfemur -0.413237 1.18427 -21.3293
ltibia 5.66634
lfoot -5.57861 -6.60966
ltoes 26.0428
505
root 9.99697 18.2354 -18.7916 3.388 -0.239531 2.41295
lowerback -8.81658 0.77684 -1.19069
upperback -0.417548 1.20482 -1.10055
thorax 4.5112 0.582347 -0.321822
lowerneck 9.49229 -2.36164 -2.45198
upperneck -4.74793 -3.28437 2.51248
head -3.12311 -1.68439 1.43928
rclavicle 1.01411e-015 -5.1684e-015
rhumerus -40.945 10.5901 -93.052
rradius 26.1587
rwrist -0.54339
rhand -4.49473 -30.2317
rfingers 7.12502
rthumb 21.2788 -59.0836
lclavicle 1.01411e-015 -5.1684e-015
lhumerus -34.6006 -16.9489 94.2747
lradius 19.9445
lwrist 10.2582
lhand 2.61381 -11.467
lfingers 7.12502
lthumb 28.0915 16.4494
rfemur 4.149 6.65192 17.8977
rtibia 0.831745
rfoot -17.3989 -19.1615
rtoes 2.3461
lfemur -0.44658 1.16718 -21.3678
ltibia 5.62506
lfoot -5.50215 -6.62963
ltoes 25.8713
506
root 9.99273 18.236 -18.7895 3.42386 -0.134399 2.46806
lowerback -8.86224 0.801338 -1.2467
upperback -0.444715 1.24552 -1.14349
thorax 4.50822 0.601811 -0.32936
lowerneck 9.25316 -2.4331 -2.43066
upperneck -4.56735 -3.37209 2.54519
head -3.01244 -1.72931 1.44144
rclavicle -4.86867e-015 -4.52235e-015
rhumerus -40.9736 10.2595 -92.994
rradius 25.8941
rwrist -0.560827
rhand -4.60204 -30.0946
rfingers 7.12502
rthumb 21.1757 -58.9581
lclavicle -4.86867e-015 -4.52235e-015
lhumerus -34.5025 -17.0575 94.2223
lradius 19.9543
lwrist 10.0912
lhand 2.27226 -11.4487
lfingers 7.12502
lthumb 27.7649 16.5207
rfemur 4.14269 6.65432 17.8612
rtibia 0.807429
rfoot -17.4517 -19.2836
rtoes 2.32087
lfemur -0.473894 1.14809 -21.4259
ltibia 5.58734
lfoot -5.43815 -6.64231
ltoes 25.7127
507
root 9.98839 18.2368 -18.7877 3.4442 -0.0444876 2.52865
lowerback -8.90626 0.83449 -1.30417
upperback -0.445721 1.29886 -1.19607
thorax 4.53174 0.627401 -0.344299
lowerneck 8.91416 -2.47025 -2.46023
upperneck -4.30088 -3.41433 2.65599
head -2.85365 -1.75341 1.47153
rclavicle -8.67664e-015 1.33683e-014
rhumerus -40.9581 9.92007 -92.9327
rradius 25.6158
rwrist -0.514707
rhand -4.68884 -29.9832
rfingers 7.12502
rthumb 21.0924 -58.856
lclavicle -8.67664e-015 1.33683e-014
lhumerus -34.3246 -17.1846 94.1432
lradius 19.927
lwrist 9.90183
lhand 1.97975 -11.308
lfingers 7.12502
lthumb 27.4852 16.7063
rfemur 4.14035 6.65394 17.8135
rtibia 0.798245
rfoot -17.5208 -19.3657
rtoes 2.44719
lfemur -0.487177 1.12123 -21.4902
ltibia 5.5512
lfoot -5.38475 -6.64652
ltoes 25.6455
508
root 9.98416 18.2373 -18.7857 3.44767 0.0327046 2.59015
lowerback -8.94279 0.87476 -1.35791
upperback -0.430603 1.36183 -1.25482
thorax 4.56811 0.65778 -0.366466
lowerneck 8.55081 -2.50252 -2.49771
upperneck -4.05015 -3.44891 2.79804
head -2.69641 -1.77416 1.51229
rclavicle 2.10898e-014 -1.36167e-014
rhumerus -40.9123 9.5786 -92.8712
rradius 25.3193
rwrist -0.398754
rhand -4.73732 -29.9396
rfingers 7.12502
rthumb 21.0458 -58.8176
lclavicle 2.10898e-014 -1.36167e-014
lhumerus -34.0934 -17.312 94.0453
lradius 19.8669
lwrist 9.70733
lhand 1.73952 -11.117
lfingers 7.12502
lthumb 27.2555 16.9336
rfemur 4.15038 6.64617 17.76
rtibia 0.799875
rfoot -17.5951 -19.4096
rtoes 2.66941
lfemur -0.480081 1.08952 -21.5551
ltibia 5.51753
lfoot -5.3415 -6.64665
ltoes 25.666
509
root 9.98021 18.2375 -18.7829 3.43621 0.102311 2.6471
lowerback -8.96322 0.92049 -1.40271
upperback -0.415756 1.431 -1.31643
thorax 4.59546 0.691488 -0.396057
lowerneck 8.21978 -2.54443 -2.51795
upperneck -3.86187 -3.49525 2.93365
head -2.56726 -1.80038 1.55018
rclavicle -3.23336e-015 1.2424e-014
rhumerus -40.8606 9.24599 -92.8137
rradius 25.0036
rwrist -0.222127
rhand -4.71917 -29.9868
rfingers 7.12502
rthumb 21.0632 -58.8628
lclavicle -3.23336e-015 1.2424e-014
lhumerus -33.8472 -17.4151 93.9372
lradius 19.7792
lwrist 9.5239
lhand 1.57262 -10.8885
lfingers 7.12502
lthumb 27.0958 17.187
rfemur 4.17804 6.62761 17.7079
rtibia 0.804825
rfoot -17.6652 -19.4244
rtoes 2.90758
lfemur -0.450736 1.06068 -21.6146
ltibia 5.4856
lfoot -5.30621 -6.65113
ltoes 25.7357
510
root 9.97653 18.2372 -18.7794 3.41672 0.178211 2.68901
lowerback -8.96632 0.967392 -1.43033
upperback -0.413128 1.49928 -1.37647
thorax 4.60079 0.725262 -0.434149
lowerneck 7.92843 -2.60167 -2.49805
upperneck -3.71558 -3.56068 3.03148
head -2.4607 -1.83522 1.57103
rclavicle -2.09035e-015 -1.49089e-015
rhumerus -40.8195 8.93637 -92.765
rradius 24.6702
rwrist -0.00218597
rhand -4.61916 -30.1134
rfingers 7.12502
rthumb 21.1593 -58.9787
lclavicle -2.09035e-015 -1.49089e-015
lhumerus -33.6159 -17.4912 93.8347
lradius 19.6684
lwrist 9.39971
lhand 1.43768 -10.8034
lfingers 7.12502
lthumb 26.9667 17.2921
rfemur 4.22281 6.59945 17.6731
rtibia 0.805625
rfoot -17.7288 -19.4294
rtoes 3.11075
lfemur -0.406944 1.03401 -21.6554
ltibia 5.45703
lfoot -5.27452 -6.67178
ltoes 25.8062
511
root 9.97286 18.2366 -18.7756 3.39808 0.266736 2.70362
lowerback -8.95337 1.01049 -1.43576
upperback -0.439135 1.55876 -1.42704
thorax 4.56763 0.755349 -0.476537
lowerneck 7.72625 -2.68598 -2.40354
upperneck -3.62291 -3.66086 3.03975
head -2.39022 -1.88575 1.55411
rclavicle 1.17034e-014 -1.38155e-014
rhumerus -40.8235 8.68049 -92.7391
rradius 24.3311
rwrist 0.233107
rhand -4.4528 -30.2859
rfingers 7.12502
rthumb 21.3191 -59.1332
lclavicle 1.17034e-014 -1.38155e-014
lhumerus -33.4444 -17.5441 93.7606
lradius 19.5507
lwrist 9.38647
lhand 1.14047 -11.0133
lfingers 7.12502
lthumb 26.6823 17.1259
rfemur 4.27021 6.56582 17.6726
rtibia 0.809722
rfoot -17.7916 -19.4367
rtoes 3.25616
lfemur -0.364158 1.014 -21.6596
ltibia 5.43683
lfoot -5.24096 -6.712
ltoes 25.7834
